<?xml version="1.0" encoding="UTF-8"?>
<svg width="200" height="200" viewBox="0 0 200 200" fill="none" xmlns="http://www.w3.org/2000/svg">
    <!-- Flowing Dance Movement -->
    <path d="
      M 100,30
      C 130,30 150,45 160,70
      C 170,95 165,120 145,140
      C 125,160 100,165 100,165
      C 100,165 75,160 55,140
      C 35,120 30,95 40,70
      C 50,45 70,30 100,30
      Z
    " fill="#7C3AED" opacity="0.9" />

    <!-- Inner Movement -->
    <path d="
      M 100,60
      C 120,60 135,70 140,85
      C 145,100 140,115 130,125
      C 120,135 100,140 100,140
      C 100,140 80,135 70,125
      C 60,115 55,100 60,85
      C 65,70 80,60 100,60
      Z
    " fill="white" />

    <!-- Core -->
    <circle cx="100" cy="100" r="15" fill="#7C3AED" />
</svg>