<?xml version="1.0" encoding="UTF-8"?>
<svg width="200" height="200" viewBox="0 0 200 200" fill="none" xmlns="http://www.w3.org/2000/svg">
    <!-- Flowing Dance Ribbons -->
    <g>
        <!-- First Dancer -->
        <path d="M40 100 C40 70 60 50 100 50 C140 50 160 70 160 100 C160 130 140 150 100 150 C60 150 40 130 40 100Z"
            stroke="#7C3AED" stroke-width="12" stroke-linecap="round" fill="none" opacity="0.6">
            <animate attributeName="d" dur="8s" repeatCount="indefinite" values="
          M40 100 C40 70 60 50 100 50 C140 50 160 70 160 100 C160 130 140 150 100 150 C60 150 40 130 40 100Z;
          M45 100 C45 75 65 55 100 55 C135 55 155 75 155 100 C155 125 135 145 100 145 C65 145 45 125 45 100Z;
          M40 100 C40 70 60 50 100 50 C140 50 160 70 160 100 C160 130 140 150 100 150 C60 150 40 130 40 100Z"
                calcMode="spline" keySplines="0.4 0 0.2 1; 0.4 0 0.2 1" />
        </path>

        <!-- Second Dancer -->
        <path d="M60 100 C60 80 75 65 100 65 C125 65 140 80 140 100 C140 120 125 135 100 135 C75 135 60 120 60 100Z"
            stroke="#9D5CFF" stroke-width="12" stroke-linecap="round" fill="none" opacity="0.8">
            <animate attributeName="d" dur="6s" repeatCount="indefinite" values="
          M60 100 C60 80 75 65 100 65 C125 65 140 80 140 100 C140 120 125 135 100 135 C75 135 60 120 60 100Z;
          M65 100 C65 85 80 70 100 70 C120 70 135 85 135 100 C135 115 120 130 100 130 C80 130 65 115 65 100Z;
          M60 100 C60 80 75 65 100 65 C125 65 140 80 140 100 C140 120 125 135 100 135 C75 135 60 120 60 100Z"
                calcMode="spline" keySplines="0.4 0 0.2 1; 0.4 0 0.2 1" />
        </path>

        <!-- Third Dancer -->
        <path d="M80 100 C80 90 90 80 100 80 C110 80 120 90 120 100 C120 110 110 120 100 120 C90 120 80 110 80 100Z"
            stroke="#BE93FF" stroke-width="12" stroke-linecap="round" fill="none">
            <animate attributeName="d" dur="4s" repeatCount="indefinite" values="
          M80 100 C80 90 90 80 100 80 C110 80 120 90 120 100 C120 110 110 120 100 120 C90 120 80 110 80 100Z;
          M85 100 C85 95 95 85 100 85 C105 85 115 95 115 100 C115 105 105 115 100 115 C95 115 85 105 85 100Z;
          M80 100 C80 90 90 80 100 80 C110 80 120 90 120 100 C120 110 110 120 100 120 C90 120 80 110 80 100Z"
                calcMode="spline" keySplines="0.4 0 0.2 1; 0.4 0 0.2 1" />
        </path>
    </g>

    <!-- Central Point -->
    <circle cx="100" cy="100" r="8" fill="#7C3AED">
        <animate attributeName="r" values="8;10;8" dur="4s" repeatCount="indefinite" calcMode="spline"
            keySplines="0.4 0 0.2 1; 0.4 0 0.2 1" />
    </circle>
</svg>